<svg xmlns="http://www.w3.org/2000/svg" width="64.201" height="64.178" viewBox="0 0 64.201 64.178">
  <g id="_64x64" data-name="64x64" transform="translate(8273.063 -117.934)">
    <rect id="Прямоугольник_11500" data-name="Прямоугольник 11500" width="64" height="64" transform="translate(-8273 118)" fill="none"/>
    <g id="Group_786" data-name="Group 786" transform="translate(-8273 118)">
      <path id="Path_1-3" data-name="Path 1-3" d="M1137.722,4429.706a6.9,6.9,0,0,0,.835-.779,19.745,19.745,0,0,1,8.78-7.25,2.135,2.135,0,0,0,1.014-.937,19.885,19.885,0,0,1,8.255-9.343,4.385,4.385,0,0,0,.514-.608c-1.642-.2-3.065-.468-4.5-.552-5.944-.363-12.141-6.7-10.991-14.352a2.542,2.542,0,0,1,2.431-2.384,12.978,12.978,0,0,1,14.453,9.47c.526,1.9.292,3.994.438,6a8.2,8.2,0,0,0,.231,1.183,70.43,70.43,0,0,1,7.93.051c6.335.745,12.276,6.46,13.387,12.668.091.515-.341,1.122-.531,1.685-.437-.406-1.107-.737-1.275-1.231-1.835-5.415-5.084-9.5-10.9-10.875a30.725,30.725,0,0,0-6.448-.27c-1.011-.016-1.213.619-1.255,1.523-.11,2.429-.3,4.854-.539,7.271-.126,1.29.713,1.5,1.821,1.764.651-1.565,1.267-3.152,1.971-4.7.355-.781.613-2.1,1.76-1.679,1.245.457.356,1.6.109,2.356-.5,1.539-1.2,3.014-1.742,4.547-.12.337.071.783.119,1.18.385-.1.876-.092,1.139-.323,1.293-1.156,2.5-2.4,3.792-3.562.558-.5,1.213-1.483,1.994-.608.259.292-.177,1.488-.61,2.029-.986,1.231-2.211,2.279-3.258,3.471a4.664,4.664,0,0,0-.583,1.448,5.156,5.156,0,0,0,1.7.09c1.517-.458,2.988-1.066,4.489-1.6a2.214,2.214,0,0,1,.968-.232,6.054,6.054,0,0,1,1.234.471c-.207.375-.322.9-.642,1.094a18.581,18.581,0,0,1-2.347,1.1c-.838.369-1.705.68-2.512,1.1a4.7,4.7,0,0,0-.961.922c.4.361.753.949,1.211,1.044,1.412.29,2.866.372,4.3.57.805.11,2.063-.1,1.971,1.1-.1,1.285-1.358.905-2.226.864-1.2-.045-2.388-.164-3.641-.256v6.5c1.764.143,3.386.242,5,.411a16.566,16.566,0,0,1,8.723,3.862,2.349,2.349,0,0,1,.687,3.068,17.834,17.834,0,0,1-10.3,10.117,2.374,2.374,0,0,1-2.961-.707,17.194,17.194,0,0,1-4.243-11.177c-.026-.621-.014-1.243-.029-1.868a1.214,1.214,0,0,0-.123-.32l-5.85-.306c-.084,1.334-.1,2.662-.289,3.961-.066.461-.547.868-.846,1.292-.36-.434-.953-.819-1.035-1.292a19.626,19.626,0,0,1-.24-3.714c.018-.947-.414-1.562-1.245-1.613-.39-.024-.958.588-1.209,1.039-.556,1-.929,2.1-1.445,3.118-.328.661-.709,1.616-1.651,1.095-.3-.171-.285-1.275-.109-1.861.367-1.228.946-2.395,1.415-3.594.225-.578.788-1.153-.072-1.743-.876-.6-1.329.045-1.849.514-1.074.969-2.116,1.969-3.207,2.915a7.449,7.449,0,0,1-1.228.718,1.22,1.22,0,0,1-.422-1.682,1.26,1.26,0,0,1,.312-.343c.91-1,1.874-1.941,2.766-2.947.5-.564,1.424-1.017.728-2.032-.672-.974-1.364-.246-2.032-.036-1.377.424-2.726.95-4.122,1.3-.387.1-.894-.253-1.345-.4.231-.376.372-.906.712-1.106.906-.533,1.9-.932,2.859-1.378.69-.324,1.384-.629,2.056-.932-.15-1.389-.74-1.756-2.061-1.609a33.044,33.044,0,0,1-6.078.15c-1.494-.11-2,.519-2.2,1.752-1.194,7.342,2.244,13.82,9.074,16.432a21.683,21.683,0,0,1,2.684,1.042c.4.216.588.829.876,1.264-.438.188-.906.582-1.321.542a13.848,13.848,0,0,1-7.155-3.192c-5.541-4.421-7.509-10.077-6.063-16.969.438-2.1.219-1.869-1.415-2.041-2.56-.264-5.175.091-7.649-1.2a12.834,12.834,0,0,1-7.11-14.205,1.719,1.719,0,0,1,1.642-1.517c8.687-1.312,15.361,4.258,15.5,12.978C1137.731,4428.059,1137.722,4428.667,1137.722,4429.706Zm29.946,7.672a14.575,14.575,0,0,0-14.613-14.537h-.27c-3,0-3.45.412-3.417,3.4a14.751,14.751,0,0,0,14.639,14.6C1167.313,4440.94,1167.67,4440.653,1167.668,4437.378Zm4.993,4.729c-.671,0-1.2.044-1.733-.008-1.368-.144-1.971.554-2.067,1.794a15.289,15.289,0,0,0,3.129,10.618,1.7,1.7,0,0,0,1.523.451,14.776,14.776,0,0,0,8.321-7.942,1.343,1.343,0,0,0-.392-1.871c-.025-.017-.052-.033-.078-.048A13.253,13.253,0,0,0,1172.661,4442.107Zm-39.567-12.971a6.289,6.289,0,0,0,1.481-.035,1.163,1.163,0,0,0,.767-.749c.846-8.03-5.547-12.361-11.531-12.064a2.065,2.065,0,0,0-1.433,1.378c-.55,6.661,5.07,11.961,10.715,11.471Zm10.82-33.558c-1.716,7.216,5.036,13.861,12.488,12.376,1.188-6.787-3.442-13.364-12.49-12.376Zm13.781,17.571a17.345,17.345,0,0,0-7.146,7.388c2.237.2,4.187.387,6.142.507a.989.989,0,0,0,.714-.586,12.9,12.9,0,0,0,.29-7.309Zm-10.664,10.99a13.2,13.2,0,0,0-6.494,6.137,19.369,19.369,0,0,0,4.852.217c2.11-.217,2.108-.337,1.945-2.417-.059-.76.007-1.526-.038-2.289-.03-.489-.155-.981-.265-1.65Z" transform="translate(-1120.321 -4393.363)" fill="red" stroke="red" stroke-width="0.1"/>
      <path id="Path_2-3" data-name="Path 2-3" d="M1154.106,4423.227c-.468.342-.787.749-1.018.7-.331-.066-.6-.458-.895-.713.265-.3.509-.792.8-.825S1153.605,4422.826,1154.106,4423.227Z" transform="translate(-1116.922 -4390.707)" fill="red" stroke="red" stroke-width="0.1"/>
      <path id="Path_3-3" data-name="Path 3-3" d="M1150.639,4426.708c-.511.346-.856.742-1.058.681-.331-.1-.57-.507-.845-.782.28-.278.539-.734.848-.771C1149.836,4425.807,1150.148,4426.28,1150.639,4426.708Z" transform="translate(-1117.292 -4390.386)" fill="red" stroke="red" stroke-width="0.1"/>
    </g>
  </g>
</svg>
